<svg width="85" height="85" viewBox="0 0 85 85" fill="none" xmlns="http://www.w3.org/2000/svg">
<circle cx="42.5" cy="42.5" r="42" stroke="white"/>
<path d="M59.5943 29.6803C59.4145 29.6803 55.1658 29.706 52.9285 31.9434L48.4325 36.4394L26.9513 31.0698C26.9461 31.0685 26.9408 31.0679 26.9356 31.0667C26.9218 31.0636 26.908 31.0608 26.8942 31.0585C26.8837 31.0567 26.8732 31.0552 26.8628 31.054C26.8503 31.0525 26.8378 31.0514 26.8253 31.0506C26.8136 31.0497 26.802 31.0491 26.7904 31.0489C26.7787 31.0487 26.7669 31.0488 26.7552 31.0491C26.7435 31.0495 26.7318 31.05 26.7201 31.0508C26.708 31.0518 26.6959 31.0532 26.6838 31.0547C26.6731 31.0561 26.6624 31.0574 26.652 31.0593C26.6384 31.0616 26.625 31.0645 26.6115 31.0676C26.6029 31.0697 26.5944 31.0716 26.5858 31.0739C26.5706 31.0779 26.5557 31.0828 26.5408 31.0879C26.5343 31.0901 26.5276 31.0923 26.521 31.0948C26.5052 31.1008 26.4896 31.1074 26.4741 31.1145C26.4685 31.117 26.463 31.1195 26.4576 31.1222C26.4423 31.1296 26.4274 31.1377 26.4127 31.1463C26.4069 31.1496 26.4009 31.153 26.3953 31.1565C26.382 31.1647 26.369 31.1735 26.3561 31.1826C26.3488 31.1877 26.3417 31.193 26.3346 31.1983C26.3239 31.2066 26.3134 31.2151 26.3032 31.2239C26.2943 31.2316 26.2856 31.2395 26.2771 31.2475C26.2724 31.2519 26.2674 31.2559 26.2628 31.2605L24.2119 33.3111C24.2084 33.3146 24.2055 33.3185 24.2021 33.3219C24.1928 33.3316 24.1839 33.3414 24.1751 33.3516C24.167 33.3611 24.1591 33.3707 24.1515 33.3805C24.1482 33.3847 24.1446 33.3886 24.1414 33.3929C24.1379 33.3976 24.135 33.4026 24.1316 33.4075C24.1237 33.4189 24.116 33.4304 24.1087 33.4422C24.1031 33.4511 24.0978 33.4601 24.0927 33.4692C24.0862 33.4809 24.0799 33.4927 24.0741 33.5047C24.0692 33.5147 24.0645 33.5246 24.0601 33.5347C24.0552 33.546 24.0506 33.5574 24.0463 33.5689C24.0422 33.5799 24.0382 33.5912 24.0346 33.6024C24.0311 33.6132 24.0279 33.624 24.025 33.6349C24.0218 33.647 24.0188 33.6591 24.0161 33.6712C24.0139 33.6817 24.0119 33.6922 24.0101 33.7027C24.0081 33.7152 24.0062 33.7277 24.0048 33.7402C24.0036 33.7509 24.0026 33.7617 24.0019 33.7724C24.001 33.7847 24.0004 33.7969 24.0001 33.8091C23.9999 33.8204 24 33.8316 24.0003 33.843C24.0007 33.8546 24.0011 33.8661 24.002 33.8777C24.0028 33.8897 24.0041 33.9017 24.0055 33.9136C24.0069 33.9244 24.0083 33.9351 24.0102 33.9456C24.0123 33.9582 24.0148 33.9707 24.0177 33.9831C24.0199 33.9932 24.0223 34.0031 24.025 34.0131C24.0284 34.0257 24.0323 34.0382 24.0364 34.0506C24.0396 34.0604 24.0428 34.0701 24.0466 34.0798C24.0511 34.0917 24.056 34.1036 24.0611 34.1153C24.0654 34.1254 24.0701 34.1353 24.0749 34.1452C24.0803 34.1559 24.086 34.1666 24.0919 34.1772C24.0977 34.1878 24.1039 34.1982 24.1103 34.2084C24.1162 34.2179 24.1223 34.2271 24.1286 34.2364C24.1362 34.2472 24.1441 34.2579 24.1523 34.2685C24.1586 34.2768 24.1653 34.2849 24.1721 34.293C24.1811 34.3035 24.1903 34.3138 24.2 34.3238C24.204 34.3281 24.2076 34.3326 24.2117 34.3368C24.2154 34.3405 24.2197 34.3437 24.2234 34.3474C24.2325 34.356 24.2418 34.3644 24.2513 34.3727C24.2614 34.3813 24.2716 34.3897 24.2819 34.3977C24.2858 34.4007 24.2894 34.4042 24.2934 34.4072L39.3419 45.5297L32.0494 52.8222L28.3726 51.5963C28.3654 51.5938 28.3582 51.5924 28.3509 51.5903C28.3374 51.5862 28.3239 51.5821 28.3101 51.5789C28.2983 51.5761 28.2864 51.5741 28.2745 51.5718C28.2636 51.5697 28.2528 51.5677 28.2418 51.5662C28.228 51.5643 28.2144 51.5631 28.2007 51.562C28.1912 51.5612 28.1819 51.5604 28.1724 51.56C28.158 51.5594 28.1437 51.5595 28.1292 51.5598C28.1201 51.56 28.1112 51.5601 28.1021 51.5606C28.0879 51.5614 28.0737 51.5628 28.0596 51.5645C28.0502 51.5656 28.0409 51.5667 28.0316 51.5681C28.0179 51.5702 28.0043 51.5729 27.9907 51.5759C27.9811 51.578 27.9717 51.58 27.9624 51.5823C27.9486 51.5859 27.9352 51.5901 27.9218 51.5944C27.9128 51.5973 27.9039 51.6 27.8949 51.6033C27.8806 51.6086 27.8664 51.6146 27.8525 51.6207C27.8449 51.624 27.8375 51.6271 27.83 51.6307C27.814 51.6384 27.7987 51.6468 27.7832 51.6556C27.779 51.6581 27.7745 51.6599 27.7703 51.6626L27.7608 51.6682C27.7596 51.6689 27.7584 51.6696 27.7572 51.6703L24.3581 53.7098C24.3563 53.7108 24.3547 53.7118 24.353 53.7129L24.3518 53.7136C24.3499 53.7147 24.3484 53.7161 24.3465 53.7172C24.328 53.7285 24.3098 53.7405 24.2923 53.7536C24.2867 53.7577 24.2815 53.7624 24.2761 53.7667C24.263 53.777 24.2499 53.7873 24.2376 53.7986C24.2291 53.8062 24.2215 53.8143 24.2135 53.8222C24.2048 53.8308 24.196 53.8392 24.1878 53.8482C24.177 53.8602 24.1672 53.8726 24.1573 53.8851C24.1526 53.8911 24.1475 53.8967 24.143 53.9029C24.1299 53.9203 24.118 53.9384 24.1067 53.9569C24.1056 53.9588 24.1043 53.9604 24.1031 53.9623C24.103 53.9624 24.1029 53.9626 24.1028 53.9628C24.078 54.0042 24.0575 54.0477 24.0414 54.0929C24.0345 54.1123 24.0289 54.1318 24.0238 54.1516C24.0231 54.1544 24.022 54.1571 24.0214 54.1599C24.0169 54.178 24.0135 54.1962 24.0104 54.2143C24.0096 54.2192 24.0083 54.224 24.0077 54.229C24.0053 54.2443 24.0042 54.2598 24.0029 54.2753C24.0023 54.2834 24.0011 54.2916 24.0008 54.2998C24.0002 54.3115 24.0005 54.3231 24.0006 54.3348C24.0005 54.347 24.0001 54.3591 24.0008 54.3713C24.0011 54.3791 24.0022 54.3868 24.0028 54.3945C24.0041 54.4104 24.0053 54.4261 24.0076 54.442C24.0083 54.4463 24.0094 54.4506 24.0101 54.4549C24.0132 54.4737 24.0167 54.4925 24.0214 54.5111C24.0216 54.512 24.0219 54.5128 24.0221 54.5137C24.0308 54.5473 24.0424 54.5805 24.056 54.6133C24.06 54.6231 24.0636 54.633 24.068 54.6426C24.0692 54.645 24.0707 54.6475 24.0718 54.6499C24.0813 54.6694 24.0913 54.6886 24.1024 54.7073C24.1027 54.7077 24.1028 54.7081 24.103 54.7085C24.1039 54.7099 24.1049 54.711 24.1058 54.7123C24.1198 54.7356 24.1356 54.7579 24.1524 54.7797C24.1574 54.786 24.1626 54.7923 24.1677 54.7985C24.1815 54.8151 24.196 54.831 24.2115 54.8465C24.2171 54.8522 24.2227 54.8582 24.2285 54.8638C24.2483 54.8824 24.2692 54.9002 24.2915 54.9167C24.2986 54.922 24.3062 54.9265 24.3135 54.9314C24.3262 54.9402 24.3384 54.9492 24.3518 54.9571L30.3925 58.5817L29.6816 59.2925C29.3984 59.5757 29.3984 60.0349 29.6816 60.318C29.8233 60.4596 30.0089 60.5305 30.1945 60.5305C30.38 60.5305 30.5656 60.4597 30.7073 60.318L31.4181 59.6072L35.0388 65.6415C35.0398 65.6432 35.0409 65.6449 35.0419 65.6466L35.0426 65.6478C35.043 65.6485 35.0436 65.6491 35.044 65.6498C35.0586 65.674 35.0749 65.6971 35.0925 65.7196C35.0971 65.7256 35.1019 65.7314 35.1067 65.7372C35.1208 65.7543 35.1359 65.7708 35.1519 65.7868C35.1572 65.7921 35.1623 65.7976 35.1677 65.8028C35.1878 65.8216 35.2088 65.8396 35.2314 65.8563C35.2379 65.8612 35.2449 65.8652 35.2516 65.8699C35.2647 65.879 35.2776 65.8883 35.2914 65.8966C35.2943 65.8984 35.2975 65.8996 35.3005 65.9012C35.3182 65.9116 35.3365 65.9203 35.3548 65.929C35.3662 65.9343 35.3772 65.9403 35.3887 65.945C35.4048 65.9516 35.4214 65.9566 35.4379 65.9621C35.4519 65.9667 35.4657 65.972 35.4799 65.9758C35.4941 65.9795 35.5088 65.9817 35.5231 65.9846C35.5394 65.9878 35.5557 65.9919 35.5721 65.994C35.5917 65.9965 35.6116 65.997 35.6316 65.9979C35.6424 65.9984 35.6532 66.0001 35.6638 66.0001C35.664 66.0001 35.6643 66 35.6645 66C35.6647 66 35.665 66.0001 35.6652 66.0001C35.6759 66.0001 35.6867 65.9984 35.6974 65.9979C35.7173 65.997 35.7372 65.9965 35.7568 65.994C35.7733 65.9919 35.7897 65.9879 35.8061 65.9845C35.8204 65.9817 35.8348 65.9795 35.849 65.9759C35.8633 65.9721 35.8773 65.9667 35.8915 65.9619C35.9078 65.9566 35.9241 65.9516 35.9401 65.945C35.9518 65.9402 35.9632 65.9341 35.9748 65.9286C35.9928 65.9201 36.0108 65.9115 36.0281 65.9013C36.0312 65.8996 36.0344 65.8983 36.0376 65.8966C36.052 65.8879 36.0654 65.8783 36.0789 65.8688C36.085 65.8646 36.0913 65.8609 36.0972 65.8564C36.12 65.8396 36.1411 65.8215 36.1614 65.8024C36.1666 65.7975 36.1716 65.7921 36.1767 65.787C36.1927 65.7708 36.208 65.7542 36.2224 65.7368C36.2271 65.7311 36.2319 65.7254 36.2364 65.7195C36.2538 65.6971 36.2702 65.674 36.2848 65.6498C36.2853 65.6491 36.2859 65.6484 36.2863 65.6476L36.2872 65.6461C36.2881 65.6445 36.2892 65.6429 36.2901 65.6413L38.3373 62.2289C38.3418 62.2214 38.3454 62.2136 38.3495 62.206C38.3557 62.1948 38.362 62.1837 38.3675 62.1721C38.3729 62.1609 38.3778 62.1495 38.3826 62.1379C38.3868 62.1278 38.3913 62.1178 38.3951 62.1075C38.3997 62.0951 38.4037 62.0825 38.4075 62.0699C38.4106 62.06 38.4137 62.0503 38.4164 62.0402C38.4197 62.0276 38.4224 62.0148 38.4252 62.0021C38.4273 61.9917 38.4295 61.9812 38.4312 61.9706C38.433 61.9585 38.4344 61.9464 38.4357 61.9342C38.437 61.9227 38.4382 61.911 38.4389 61.8994C38.4396 61.8882 38.4398 61.8769 38.4399 61.8657C38.4401 61.8537 38.4402 61.8411 38.4397 61.8285C38.4392 61.8179 38.4383 61.8072 38.4374 61.7966C38.4364 61.7838 38.4353 61.771 38.4336 61.7581C38.432 61.747 38.4298 61.7359 38.4279 61.7249C38.4256 61.7129 38.4236 61.701 38.4207 61.689C38.4177 61.6765 38.414 61.6642 38.4102 61.6518C38.4079 61.6435 38.4061 61.6351 38.4033 61.6269L37.1772 57.95L58.053 37.0743C58.054 37.0732 58.0552 37.0722 58.0563 37.0712C60.2937 34.8338 60.3194 30.5853 60.3194 30.4055C60.3195 30.005 59.9948 29.6803 59.5943 29.6803ZM25.8327 33.7414L26.9978 32.5764L47.2365 37.6353L40.3791 44.4926L25.8327 33.7414ZM57.0331 36.043C57.0323 36.0439 57.0314 36.0445 57.0305 36.0454L35.8347 57.2413C35.8323 57.2438 35.8303 57.2464 35.8279 57.2489C35.818 57.2591 35.8087 57.2697 35.7993 57.2804C35.7924 57.2884 35.7854 57.2963 35.7789 57.3044C35.7716 57.3135 35.7651 57.323 35.7583 57.3325C35.7507 57.343 35.7432 57.3534 35.7363 57.3642C35.7315 57.3716 35.7273 57.3794 35.7228 57.3869C35.7151 57.4 35.7076 57.4129 35.7008 57.4262C35.6975 57.4328 35.6947 57.4396 35.6914 57.4464C35.6846 57.4608 35.678 57.4753 35.6722 57.49C35.6693 57.4975 35.6669 57.5052 35.6642 57.5128C35.6593 57.5268 35.6542 57.5409 35.6501 57.5551C35.6473 57.5653 35.6452 57.5756 35.6426 57.5858C35.6398 57.5977 35.6366 57.6096 35.6344 57.6217C35.6321 57.6346 35.6306 57.6478 35.6289 57.661C35.6276 57.6706 35.6261 57.6801 35.6251 57.6898C35.6239 57.7043 35.6235 57.7187 35.6231 57.7333C35.6229 57.7421 35.6223 57.7508 35.6223 57.7595C35.6224 57.7734 35.6234 57.7872 35.6243 57.801C35.6249 57.811 35.6253 57.8209 35.6264 57.8308C35.6277 57.8427 35.6296 57.8546 35.6315 57.8664C35.6334 57.8787 35.6352 57.8909 35.6379 57.903C35.6398 57.9127 35.6424 57.9223 35.6448 57.9318C35.6484 57.9462 35.6522 57.9604 35.6567 57.9746C35.6577 57.9776 35.6582 57.9807 35.6592 57.9838L36.9215 61.7695L35.6639 63.8656L32.4746 58.5505L35.4929 55.5322C35.7764 55.2488 35.7764 54.7896 35.4932 54.5064C35.2099 54.2232 34.7508 54.2232 34.4676 54.5064L31.4494 57.5246L26.1342 54.3353L28.2304 53.0776L32.0161 54.34C32.0185 54.3408 32.0209 54.3409 32.0233 54.3418C32.0556 54.3522 32.0884 54.3602 32.1215 54.3659C32.1296 54.3673 32.1376 54.3683 32.1457 54.3694C32.1756 54.3735 32.2056 54.3762 32.2357 54.3766C32.239 54.3767 32.2422 54.3775 32.2456 54.3775C32.2493 54.3775 32.2529 54.3766 32.2566 54.3766C32.2853 54.3762 32.3139 54.3737 32.3425 54.3699C32.3515 54.3687 32.3604 54.3675 32.3693 54.366C32.4001 54.3607 32.4307 54.3536 32.4608 54.3442C32.4669 54.3422 32.4728 54.34 32.4789 54.3378C32.5062 54.3285 32.533 54.3176 32.5594 54.3049C32.5643 54.3026 32.5694 54.3005 32.5743 54.298C32.6027 54.2835 32.6302 54.2669 32.6568 54.2485C32.6637 54.2437 32.6705 54.2384 32.6773 54.2334C32.6981 54.2179 32.7181 54.2013 32.7375 54.1833C32.7434 54.1778 32.7498 54.1727 32.7555 54.167C32.7564 54.1662 32.7573 54.1655 32.7581 54.1647L53.954 32.9688C55.265 31.6577 57.6157 31.2816 58.8268 31.1738C58.7205 32.383 58.3466 34.7271 57.0331 36.043Z" fill="white"/>
</svg>
